<?xml version="1.0" standalone="no"?>
<!DOCTYPE svg PUBLIC "-//W3C//DTD SVG 20010904//EN"
 "http://www.w3.org/TR/2001/REC-SVG-20010904/DTD/svg10.dtd">
<svg version="1.0" xmlns="http://www.w3.org/2000/svg"
 width="800.000000pt" height="800.000000pt" viewBox="0 0 800.000000 800.000000"
 preserveAspectRatio="xMidYMid meet">
<metadata>
Created by potrace 1.14, written by Peter Selinger 2001-2017
</metadata>
<g transform="translate(0.000000,800.000000) scale(0.100000,-0.100000)"
fill="#000000" stroke="none">
<path d="M4498 7996 c-1 -2 -46 -6 -98 -10 -52 -4 -108 -9 -125 -12 -16 -3
-50 -7 -75 -9 -25 -2 -46 -5 -47 -6 -5 -3 -15 -5 -73 -13 -30 -4 -62 -9 -70
-11 -8 -2 -29 -6 -47 -9 -30 -6 -147 -31 -185 -41 -173 -41 -487 -144 -515
-167 -7 -6 -13 -8 -13 -5 0 4 -30 -8 -67 -24 -81 -37 -116 -52 -123 -53 -14
-3 -280 -142 -337 -176 -36 -22 -69 -40 -74 -40 -5 0 -9 -4 -9 -10 0 -5 -6
-10 -13 -10 -6 0 -35 -16 -62 -36 -28 -20 -60 -40 -72 -45 -13 -5 -23 -12 -23
-17 0 -4 -15 -16 -32 -27 -49 -28 -154 -107 -211 -157 l-31 -28 1255 -1255
c689 -690 1259 -1255 1264 -1255 6 0 578 568 1272 1263 1213 1214 1262 1263
1241 1277 -11 8 -30 24 -42 35 -11 11 -34 28 -49 38 -16 10 -36 24 -45 32 -52
42 -113 85 -122 85 -6 0 -10 5 -10 10 0 6 -5 10 -11 10 -6 0 -25 11 -42 24
-85 63 -351 210 -517 285 -41 19 -94 43 -117 53 -23 11 -48 21 -55 22 -16 4
-43 14 -85 32 -33 15 -176 63 -203 69 -8 2 -16 4 -17 5 -2 2 -6 3 -10 4 -34 9
-105 31 -138 43 -22 8 -41 14 -43 13 -1 -1 -15 1 -30 4 -15 4 -36 8 -47 10
-11 3 -42 10 -70 16 -27 7 -63 14 -80 17 -35 5 -60 10 -95 17 -14 3 -45 9 -70
12 -25 3 -55 7 -68 9 -13 2 -53 7 -90 11 -37 3 -78 8 -92 11 -29 5 -576 13
-582 9z"/>
<path d="M1587 6473 c-46 -57 -141 -188 -177 -243 -6 -8 -27 -40 -47 -70 -93
-142 -211 -358 -277 -510 -15 -36 -36 -83 -46 -105 -34 -74 -142 -379 -155
-435 -2 -8 -13 -51 -24 -95 -12 -44 -24 -89 -26 -100 -13 -55 -35 -163 -40
-190 -14 -83 -25 -154 -30 -195 -3 -25 -7 -54 -9 -65 -27 -142 -28 -770 -2
-910 2 -11 7 -47 10 -80 6 -55 20 -145 32 -205 3 -14 7 -38 10 -54 10 -51 32
-149 54 -231 11 -44 22 -87 24 -95 2 -8 14 -44 26 -80 12 -36 23 -72 25 -80 5
-21 57 -160 93 -252 44 -109 151 -328 211 -432 28 -49 51 -93 51 -97 0 -5 5
-9 10 -9 6 0 10 -4 10 -10 0 -10 14 -32 124 -195 41 -60 84 -120 95 -132 12
-12 21 -26 21 -30 1 -4 18 -27 39 -50 l38 -42 1268 1269 1268 1269 -1261 1261
-1260 1261 -55 -68z"/>
<path d="M3443 2195 c-695 -696 -1263 -1268 -1263 -1272 0 -5 51 -47 113 -93
61 -47 114 -88 115 -92 2 -5 8 -8 13 -8 6 0 34 -18 63 -40 29 -22 58 -40 64
-40 7 0 12 -4 12 -10 0 -5 7 -10 15 -10 8 0 15 -4 15 -10 0 -5 4 -10 9 -10 5
0 45 -22 88 -49 152 -94 437 -232 632 -306 91 -34 332 -110 363 -115 4 -1 22
-6 40 -11 18 -6 42 -12 53 -14 11 -3 31 -7 45 -11 14 -3 45 -10 70 -15 25 -5
56 -12 70 -15 14 -3 36 -7 50 -9 23 -4 54 -9 107 -19 12 -3 49 -7 82 -11 33
-3 70 -8 82 -10 132 -26 762 -26 894 -1 11 2 52 7 90 12 91 11 84 10 130 18
50 9 235 46 255 51 121 29 251 68 365 107 77 27 145 50 150 52 10 3 23 8 112
47 24 11 45 19 47 19 2 0 39 17 83 37 43 21 81 36 86 35 4 -1 7 1 7 6 0 4 15
14 33 21 17 8 53 27 80 43 26 15 47 25 47 21 0 -3 8 1 18 9 9 8 49 33 88 55
78 46 172 106 191 123 7 5 15 10 18 10 7 0 229 165 267 198 l27 24 -1274 1274
c-700 701 -1277 1274 -1282 1273 -4 0 -576 -569 -1270 -1264z"/>
</g>
</svg>
